<svg xmlns="http://www.w3.org/2000/svg" version="1.1" xmlns:xlink="http://www.w3.org/1999/xlink" width="187.5735" height="194.7879"><svg width="187.5735" height="194.7879" viewBox="0 0 187.5735 194.7879" xmlns="http://www.w3.org/2000/svg" xmlns:xlink="http://www.w3.org/1999/xlink"><defs><clipPath id="SvgjsClipPath1036"><rect x="0" y="0" width="187.5735" height="194.7879" fill="none" stroke="none" stroke-width="1"></rect></clipPath></defs><g clip-path="url(#clip-1)" id="SvgjsG1035" fill="none" fill-rule="nonzero" stroke="none" stroke-width="none" stroke-linecap="butt" stroke-linejoin="miter" stroke-miterlimit="10" stroke-dasharray="" stroke-dashoffset="0" font-family="none" font-weight="none" font-size="none" text-anchor="none" style="mix-blend-mode: normal"><rect x="0" y="0" width="187.5735" height="194.7879" fill="none" stroke="none" stroke-width="1"></rect><path d="M296.0442,388.5266z" fill="#ffffff" stroke="#000000" stroke-width="1"></path><path d="M140.8916,368.6815z" fill="#ffffff" stroke="#000000" stroke-width="1"></path><path d="M63.3153,464.2988" fill="#ffffff" stroke="#000000" stroke-width="1"></path><path d="" fill="none" stroke="#ffffff" stroke-width="55"></path><path d="" fill="none" stroke="#000000" stroke-width="55"></path><path d="" fill="none" stroke="#000000" stroke-width="55"></path><g stroke="#59c2c5"><g fill="#59c2c5" stroke-width="1"><polygon points="71.8764,146.3452 53.3864,146.3452 53.3864,51.3352 71.8764,51.3352 71.8764,96.4952 111.8064,51.2052 132.1764,51.2052 95.7264,93.4152 134.4564,146.3452 113.5564,146.3452 83.9364,105.3452 71.8764,117.9352"></polygon></g><path d="M182.3685,142.1792" data-paper-data="{&quot;rotation&quot;:-52.13204536008455}" fill="none" stroke-width="18"></path><path d="M119.1683,179.111c-7.9414,2.5943 -16.4011,3.9942 -25.1791,3.9942c-45.8333,0 -82.9886,-38.1649 -82.9886,-85.2437c0,-47.0788 37.1553,-85.2437 82.9886,-85.2437c43.9023,0 79.8424,35.0168 82.7929,79.3429c0.1298,1.9497 0.1957,3.9173 0.1957,5.9008c0,3.3457 -0.1876,6.6463 -0.5527,9.8914c-0.3732,3.317 -0.9317,6.576 -1.6647,9.7658c-1.0352,4.5049 -2.4183,8.8718 -4.1187,13.069c-1.271,3.1373 -2.7192,6.1799 -4.3318,9.1145c-1.6247,2.9566 -3.4163,5.8037 -5.3617,8.5276c-2.2681,3.1759 -6.7888,6.0067 -10.6144,6.6549c-15.1527,2.5673 -21.4849,-1.1792 -30.1568,-13.6192" fill="none" stroke-width="18"></path></g></g></svg><style>@media (prefers-color-scheme: light) { :root { filter: none; } }
@media (prefers-color-scheme: dark) { :root { filter: none; } }
</style></svg>