<svg width="38" height="18" xmlns="http://www.w3.org/2000/svg">

 <g>
  <title>Infinity</title>
  <path id="svg_1" fill-rule="evenodd" fill="#9b4f96" d="m28.90425,17.99318a9.04,9.04 0 0 1 -7.2,-3.56l-5.464,-5.44l5.469,-5.44a9.024,9.024 0 1 1 7.195,14.44zm-0.1,-14.4a5.56,5.56 0 0 0 -4.4,2.136l-3.34,3.264l3.342,3.264a5.559,5.559 0 0 0 4.4,2.136a5.4,5.4 0 1 0 -0.002,-10.8z"/>
  <path stroke-width="0" id="svg_2" fill="#b92983" fill-rule="evenodd" d="m16.26346,14.43318a9,9 0 1 1 0,-10.88l5.469,5.44l-5.469,5.44zm-2.7,-8.7a5.56,5.56 0 0 0 -4.4,-2.136a5.4,5.4 0 1 0 0,10.8a5.559,5.559 0 0 0 4.4,-2.136l3.345,-3.268l-3.345,-3.26z"/>
 </g>
</svg>